<mxfile host="app.diagrams.net" modified="2023-12-06T20:46:11.225Z" agent="Mozilla/5.0 (X11; Linux x86_64; rv:120.0) Gecko/20100101 Firefox/120.0" etag="CPoDtJpb00pvVq7xz8LU" version="22.1.6" type="device">
  <diagram id="C5RBs43oDa-KdzZeNtuy" name="Page-1">
    <mxGraphModel dx="2603" dy="758" grid="1" gridSize="10" guides="1" tooltips="1" connect="1" arrows="1" fold="1" page="1" pageScale="1" pageWidth="1169" pageHeight="827" math="0" shadow="0">
      <root>
        <mxCell id="WIyWlLk6GJQsqaUBKTNV-0" />
        <mxCell id="WIyWlLk6GJQsqaUBKTNV-1" parent="WIyWlLk6GJQsqaUBKTNV-0" />
        <mxCell id="8b9i2b3PVjJ9cJd1Zyqa-42" style="edgeStyle=orthogonalEdgeStyle;rounded=0;orthogonalLoop=1;jettySize=auto;html=1;" parent="WIyWlLk6GJQsqaUBKTNV-1" source="U0iefbjqyvkjw_DYfTgu-29" target="8b9i2b3PVjJ9cJd1Zyqa-41" edge="1">
          <mxGeometry relative="1" as="geometry" />
        </mxCell>
        <object label="Main" main="" id="U0iefbjqyvkjw_DYfTgu-29">
          <mxCell style="swimlane;fontStyle=1;align=center;verticalAlign=top;childLayout=stackLayout;horizontal=1;startSize=26;horizontalStack=0;resizeParent=1;resizeParentMax=0;resizeLast=0;collapsible=1;marginBottom=0;whiteSpace=wrap;html=1;" parent="WIyWlLk6GJQsqaUBKTNV-1" vertex="1">
            <mxGeometry x="1025" y="23" width="205" height="138" as="geometry">
              <mxRectangle x="505" y="40" width="140" height="30" as="alternateBounds" />
            </mxGeometry>
          </mxCell>
        </object>
        <mxCell id="U0iefbjqyvkjw_DYfTgu-31" value="" style="line;strokeWidth=1;fillColor=none;align=left;verticalAlign=middle;spacingTop=-1;spacingLeft=3;spacingRight=3;rotatable=0;labelPosition=right;points=[];portConstraint=eastwest;strokeColor=inherit;" parent="U0iefbjqyvkjw_DYfTgu-29" vertex="1">
          <mxGeometry y="26" width="205" height="8" as="geometry" />
        </mxCell>
        <mxCell id="8b9i2b3PVjJ9cJd1Zyqa-20" value="main(): void" style="label;fontStyle=0;strokeColor=none;fillColor=none;align=left;verticalAlign=top;overflow=hidden;spacingLeft=28;spacingRight=4;rotatable=0;points=[[0,0.5],[1,0.5]];portConstraint=eastwest;imageWidth=16;imageHeight=16;whiteSpace=wrap;html=1;image=img/clipart/Gear_128x128.png" parent="U0iefbjqyvkjw_DYfTgu-29" vertex="1">
          <mxGeometry y="34" width="205" height="26" as="geometry" />
        </mxCell>
        <mxCell id="3klpMzZMsvCTf8a6OgXH-14" value="InitializeCommands(): void" style="label;fontStyle=0;strokeColor=none;fillColor=none;align=left;verticalAlign=top;overflow=hidden;spacingLeft=28;spacingRight=4;rotatable=0;points=[[0,0.5],[1,0.5]];portConstraint=eastwest;imageWidth=16;imageHeight=16;whiteSpace=wrap;html=1;image=img/clipart/Gear_128x128.png" vertex="1" parent="U0iefbjqyvkjw_DYfTgu-29">
          <mxGeometry y="60" width="205" height="26" as="geometry" />
        </mxCell>
        <mxCell id="3klpMzZMsvCTf8a6OgXH-15" value="run(): void" style="label;fontStyle=0;strokeColor=none;fillColor=none;align=left;verticalAlign=top;overflow=hidden;spacingLeft=28;spacingRight=4;rotatable=0;points=[[0,0.5],[1,0.5]];portConstraint=eastwest;imageWidth=16;imageHeight=16;whiteSpace=wrap;html=1;image=img/clipart/Gear_128x128.png" vertex="1" parent="U0iefbjqyvkjw_DYfTgu-29">
          <mxGeometry y="86" width="205" height="26" as="geometry" />
        </mxCell>
        <mxCell id="3klpMzZMsvCTf8a6OgXH-16" value="executarCommand(): void" style="label;fontStyle=0;strokeColor=none;fillColor=none;align=left;verticalAlign=top;overflow=hidden;spacingLeft=28;spacingRight=4;rotatable=0;points=[[0,0.5],[1,0.5]];portConstraint=eastwest;imageWidth=16;imageHeight=16;whiteSpace=wrap;html=1;image=img/clipart/Gear_128x128.png" vertex="1" parent="U0iefbjqyvkjw_DYfTgu-29">
          <mxGeometry y="112" width="205" height="26" as="geometry" />
        </mxCell>
        <mxCell id="8b9i2b3PVjJ9cJd1Zyqa-41" value="&lt;p style=&quot;margin:0px;margin-top:4px;text-align:center;&quot;&gt;&lt;i&gt;&amp;lt;&amp;lt;Command&amp;gt;&amp;gt;&lt;/i&gt;&lt;br&gt;&lt;b&gt;Interface&lt;/b&gt;&lt;/p&gt;&lt;hr size=&quot;1&quot;&gt;&lt;p style=&quot;margin:0px;margin-left:4px;&quot;&gt;+ contexto: String&lt;br&gt;&lt;/p&gt;&lt;hr size=&quot;1&quot;&gt;&lt;p style=&quot;margin:0px;margin-left:4px;&quot;&gt;+ execute(): void&lt;br&gt;&lt;/p&gt;" style="verticalAlign=top;align=left;overflow=fill;fontSize=12;fontFamily=Helvetica;html=1;whiteSpace=wrap;" parent="WIyWlLk6GJQsqaUBKTNV-1" vertex="1">
          <mxGeometry x="1032.5" y="193" width="190" height="100" as="geometry" />
        </mxCell>
        <mxCell id="8b9i2b3PVjJ9cJd1Zyqa-43" value="CommandEmprestar" style="swimlane;fontStyle=1;align=center;verticalAlign=top;childLayout=stackLayout;horizontal=1;startSize=26;horizontalStack=0;resizeParent=1;resizeParentMax=0;resizeLast=0;collapsible=1;marginBottom=0;whiteSpace=wrap;html=1;" parent="WIyWlLk6GJQsqaUBKTNV-1" vertex="1" collapsed="1">
          <mxGeometry x="1355" y="465" width="160" height="30" as="geometry">
            <mxRectangle x="970" y="372" width="160" height="34" as="alternateBounds" />
          </mxGeometry>
        </mxCell>
        <mxCell id="8b9i2b3PVjJ9cJd1Zyqa-44" value="" style="line;strokeWidth=1;fillColor=none;align=left;verticalAlign=middle;spacingTop=-1;spacingLeft=3;spacingRight=3;rotatable=0;labelPosition=right;points=[];portConstraint=eastwest;strokeColor=inherit;" parent="8b9i2b3PVjJ9cJd1Zyqa-43" vertex="1">
          <mxGeometry y="26" width="160" height="8" as="geometry" />
        </mxCell>
        <mxCell id="8b9i2b3PVjJ9cJd1Zyqa-45" value="CommandDevolver" style="swimlane;fontStyle=1;align=center;verticalAlign=top;childLayout=stackLayout;horizontal=1;startSize=26;horizontalStack=0;resizeParent=1;resizeParentMax=0;resizeLast=0;collapsible=1;marginBottom=0;whiteSpace=wrap;html=1;" parent="WIyWlLk6GJQsqaUBKTNV-1" vertex="1" collapsed="1">
          <mxGeometry x="1355" y="103" width="150" height="30" as="geometry">
            <mxRectangle x="970" y="10" width="160" height="34" as="alternateBounds" />
          </mxGeometry>
        </mxCell>
        <mxCell id="8b9i2b3PVjJ9cJd1Zyqa-46" value="" style="line;strokeWidth=1;fillColor=none;align=left;verticalAlign=middle;spacingTop=-1;spacingLeft=3;spacingRight=3;rotatable=0;labelPosition=right;points=[];portConstraint=eastwest;strokeColor=inherit;" parent="8b9i2b3PVjJ9cJd1Zyqa-45" vertex="1">
          <mxGeometry y="26" width="160" height="8" as="geometry" />
        </mxCell>
        <mxCell id="8b9i2b3PVjJ9cJd1Zyqa-47" value="CommandReservar" style="swimlane;fontStyle=1;align=center;verticalAlign=top;childLayout=stackLayout;horizontal=1;startSize=26;horizontalStack=0;resizeParent=1;resizeParentMax=0;resizeLast=0;collapsible=1;marginBottom=0;whiteSpace=wrap;html=1;" parent="WIyWlLk6GJQsqaUBKTNV-1" vertex="1" collapsed="1">
          <mxGeometry x="1355" y="305" width="150" height="30" as="geometry">
            <mxRectangle x="970" y="212" width="160" height="34" as="alternateBounds" />
          </mxGeometry>
        </mxCell>
        <mxCell id="8b9i2b3PVjJ9cJd1Zyqa-48" value="" style="line;strokeWidth=1;fillColor=none;align=left;verticalAlign=middle;spacingTop=-1;spacingLeft=3;spacingRight=3;rotatable=0;labelPosition=right;points=[];portConstraint=eastwest;strokeColor=inherit;" parent="8b9i2b3PVjJ9cJd1Zyqa-47" vertex="1">
          <mxGeometry y="26" width="160" height="8" as="geometry" />
        </mxCell>
        <mxCell id="8b9i2b3PVjJ9cJd1Zyqa-49" value="CommandObter" style="swimlane;fontStyle=1;align=center;verticalAlign=top;childLayout=stackLayout;horizontal=1;startSize=26;horizontalStack=0;resizeParent=1;resizeParentMax=0;resizeLast=0;collapsible=1;marginBottom=0;whiteSpace=wrap;html=1;" parent="WIyWlLk6GJQsqaUBKTNV-1" vertex="1" collapsed="1">
          <mxGeometry x="1355" y="365" width="130" height="30" as="geometry">
            <mxRectangle x="970" y="272" width="160" height="34" as="alternateBounds" />
          </mxGeometry>
        </mxCell>
        <mxCell id="8b9i2b3PVjJ9cJd1Zyqa-50" value="" style="line;strokeWidth=1;fillColor=none;align=left;verticalAlign=middle;spacingTop=-1;spacingLeft=3;spacingRight=3;rotatable=0;labelPosition=right;points=[];portConstraint=eastwest;strokeColor=inherit;" parent="8b9i2b3PVjJ9cJd1Zyqa-49" vertex="1">
          <mxGeometry y="26" width="160" height="8" as="geometry" />
        </mxCell>
        <mxCell id="3klpMzZMsvCTf8a6OgXH-0" value="CommandNotificacoes" style="swimlane;fontStyle=1;align=center;verticalAlign=top;childLayout=stackLayout;horizontal=1;startSize=26;horizontalStack=0;resizeParent=1;resizeParentMax=0;resizeLast=0;collapsible=1;marginBottom=0;whiteSpace=wrap;html=1;" vertex="1" collapsed="1" parent="WIyWlLk6GJQsqaUBKTNV-1">
          <mxGeometry x="1355" y="415" width="170" height="30" as="geometry">
            <mxRectangle x="970" y="322" width="160" height="34" as="alternateBounds" />
          </mxGeometry>
        </mxCell>
        <mxCell id="3klpMzZMsvCTf8a6OgXH-1" value="" style="line;strokeWidth=1;fillColor=none;align=left;verticalAlign=middle;spacingTop=-1;spacingLeft=3;spacingRight=3;rotatable=0;labelPosition=right;points=[];portConstraint=eastwest;strokeColor=inherit;" vertex="1" parent="3klpMzZMsvCTf8a6OgXH-0">
          <mxGeometry y="26" width="160" height="8" as="geometry" />
        </mxCell>
        <mxCell id="3klpMzZMsvCTf8a6OgXH-2" value="CommandObservarLivro" style="swimlane;fontStyle=1;align=center;verticalAlign=top;childLayout=stackLayout;horizontal=1;startSize=26;horizontalStack=0;resizeParent=1;resizeParentMax=0;resizeLast=0;collapsible=1;marginBottom=0;whiteSpace=wrap;html=1;" vertex="1" collapsed="1" parent="WIyWlLk6GJQsqaUBKTNV-1">
          <mxGeometry x="1355" y="251" width="180" height="30" as="geometry">
            <mxRectangle x="970" y="158" width="160" height="34" as="alternateBounds" />
          </mxGeometry>
        </mxCell>
        <mxCell id="3klpMzZMsvCTf8a6OgXH-3" value="" style="line;strokeWidth=1;fillColor=none;align=left;verticalAlign=middle;spacingTop=-1;spacingLeft=3;spacingRight=3;rotatable=0;labelPosition=right;points=[];portConstraint=eastwest;strokeColor=inherit;" vertex="1" parent="3klpMzZMsvCTf8a6OgXH-2">
          <mxGeometry y="26" width="160" height="8" as="geometry" />
        </mxCell>
        <mxCell id="3klpMzZMsvCTf8a6OgXH-4" value="CommandConsultarLivro" style="swimlane;fontStyle=1;align=center;verticalAlign=top;childLayout=stackLayout;horizontal=1;startSize=26;horizontalStack=0;resizeParent=1;resizeParentMax=0;resizeLast=0;collapsible=1;marginBottom=0;whiteSpace=wrap;html=1;" vertex="1" collapsed="1" parent="WIyWlLk6GJQsqaUBKTNV-1">
          <mxGeometry x="1355" y="195" width="180" height="30" as="geometry">
            <mxRectangle x="970" y="102" width="160" height="34" as="alternateBounds" />
          </mxGeometry>
        </mxCell>
        <mxCell id="3klpMzZMsvCTf8a6OgXH-5" value="" style="line;strokeWidth=1;fillColor=none;align=left;verticalAlign=middle;spacingTop=-1;spacingLeft=3;spacingRight=3;rotatable=0;labelPosition=right;points=[];portConstraint=eastwest;strokeColor=inherit;" vertex="1" parent="3klpMzZMsvCTf8a6OgXH-4">
          <mxGeometry y="26" width="160" height="8" as="geometry" />
        </mxCell>
        <mxCell id="3klpMzZMsvCTf8a6OgXH-6" value="CommandConsultarUsuario" style="swimlane;fontStyle=1;align=center;verticalAlign=top;childLayout=stackLayout;horizontal=1;startSize=26;horizontalStack=0;resizeParent=1;resizeParentMax=0;resizeLast=0;collapsible=1;marginBottom=0;whiteSpace=wrap;html=1;" vertex="1" collapsed="1" parent="WIyWlLk6GJQsqaUBKTNV-1">
          <mxGeometry x="1355" y="148" width="200" height="30" as="geometry">
            <mxRectangle x="970" y="55" width="160" height="34" as="alternateBounds" />
          </mxGeometry>
        </mxCell>
        <mxCell id="3klpMzZMsvCTf8a6OgXH-7" value="" style="line;strokeWidth=1;fillColor=none;align=left;verticalAlign=middle;spacingTop=-1;spacingLeft=3;spacingRight=3;rotatable=0;labelPosition=right;points=[];portConstraint=eastwest;strokeColor=inherit;" vertex="1" parent="3klpMzZMsvCTf8a6OgXH-6">
          <mxGeometry y="26" width="160" height="8" as="geometry" />
        </mxCell>
        <mxCell id="3klpMzZMsvCTf8a6OgXH-17" value="&lt;p style=&quot;margin:0px;margin-top:4px;text-align:center;&quot;&gt;&lt;b&gt;Biblioteca&lt;/b&gt;&lt;/p&gt;&lt;hr size=&quot;1&quot;&gt;&lt;p style=&quot;margin:0px;margin-left:4px;&quot;&gt;+ instancia: Biblioteca&lt;/p&gt;&lt;hr size=&quot;1&quot;&gt;&lt;p style=&quot;margin:0px;margin-left:4px;&quot;&gt;+ obterInstancia(): Biblioteca&lt;/p&gt;&lt;p style=&quot;margin:0px;margin-left:4px;&quot;&gt;+ consultarLivro(): Livro&lt;/p&gt;&lt;p style=&quot;margin:0px;margin-left:4px;&quot;&gt;+ consultarUsuario(): Usuario&lt;/p&gt;&lt;p style=&quot;margin:0px;margin-left:4px;&quot;&gt;+ emprestarLivro(): Void&lt;/p&gt;&lt;p style=&quot;margin:0px;margin-left:4px;&quot;&gt;+ devolverLivro(): void&lt;/p&gt;&lt;p style=&quot;margin:0px;margin-left:4px;&quot;&gt;+ reservarLivro(): void&lt;br&gt;&lt;/p&gt;" style="verticalAlign=top;align=left;overflow=fill;fontSize=12;fontFamily=Helvetica;html=1;whiteSpace=wrap;" vertex="1" parent="WIyWlLk6GJQsqaUBKTNV-1">
          <mxGeometry x="-671" y="93" width="190" height="160" as="geometry" />
        </mxCell>
        <mxCell id="3klpMzZMsvCTf8a6OgXH-26" value="&lt;p style=&quot;margin:0px;margin-top:4px;text-align:center;&quot;&gt;&lt;b&gt;GerenciadorLivro&lt;/b&gt;&lt;/p&gt;&lt;hr size=&quot;1&quot;&gt;+ obterLivros(): List&amp;lt;Livro&amp;gt;" style="verticalAlign=top;align=left;overflow=fill;fontSize=12;fontFamily=Helvetica;html=1;whiteSpace=wrap;" vertex="1" parent="WIyWlLk6GJQsqaUBKTNV-1">
          <mxGeometry x="-1151" y="353" width="190" height="60" as="geometry" />
        </mxCell>
        <mxCell id="3klpMzZMsvCTf8a6OgXH-27" value="&lt;p style=&quot;margin:0px;margin-top:4px;text-align:center;&quot;&gt;&lt;b&gt;GerenciadorUsuario&lt;/b&gt;&lt;/p&gt;&lt;hr size=&quot;1&quot;&gt;&lt;p style=&quot;margin:0px;margin-left:4px;&quot;&gt;+ obterUsuarios(): List&amp;lt;Usuario&amp;gt;&lt;br&gt;&lt;/p&gt;" style="verticalAlign=top;align=left;overflow=fill;fontSize=12;fontFamily=Helvetica;html=1;whiteSpace=wrap;" vertex="1" parent="WIyWlLk6GJQsqaUBKTNV-1">
          <mxGeometry x="-941" y="353" width="190" height="60" as="geometry" />
        </mxCell>
        <mxCell id="3klpMzZMsvCTf8a6OgXH-28" style="edgeStyle=orthogonalEdgeStyle;rounded=0;orthogonalLoop=1;jettySize=auto;html=1;" edge="1" parent="WIyWlLk6GJQsqaUBKTNV-1" source="3klpMzZMsvCTf8a6OgXH-29" target="3klpMzZMsvCTf8a6OgXH-35">
          <mxGeometry relative="1" as="geometry" />
        </mxCell>
        <mxCell id="3klpMzZMsvCTf8a6OgXH-29" value="Publisher" style="swimlane;fontStyle=1;align=center;verticalAlign=top;childLayout=stackLayout;horizontal=1;startSize=26;horizontalStack=0;resizeParent=1;resizeParentMax=0;resizeLast=0;collapsible=1;marginBottom=0;whiteSpace=wrap;html=1;" vertex="1" parent="WIyWlLk6GJQsqaUBKTNV-1">
          <mxGeometry x="-691" y="353" width="230" height="138" as="geometry" />
        </mxCell>
        <mxCell id="3klpMzZMsvCTf8a6OgXH-30" value="+ subscribers: Map&amp;lt;String,Subscriber&amp;gt;" style="text;strokeColor=none;fillColor=none;align=left;verticalAlign=top;spacingLeft=4;spacingRight=4;overflow=hidden;rotatable=0;points=[[0,0.5],[1,0.5]];portConstraint=eastwest;whiteSpace=wrap;html=1;" vertex="1" parent="3klpMzZMsvCTf8a6OgXH-29">
          <mxGeometry y="26" width="230" height="26" as="geometry" />
        </mxCell>
        <mxCell id="3klpMzZMsvCTf8a6OgXH-31" value="" style="line;strokeWidth=1;fillColor=none;align=left;verticalAlign=middle;spacingTop=-1;spacingLeft=3;spacingRight=3;rotatable=0;labelPosition=right;points=[];portConstraint=eastwest;strokeColor=inherit;" vertex="1" parent="3klpMzZMsvCTf8a6OgXH-29">
          <mxGeometry y="52" width="230" height="8" as="geometry" />
        </mxCell>
        <mxCell id="3klpMzZMsvCTf8a6OgXH-32" value="+ subscribe(Subscriber): void" style="text;strokeColor=none;fillColor=none;align=left;verticalAlign=top;spacingLeft=4;spacingRight=4;overflow=hidden;rotatable=0;points=[[0,0.5],[1,0.5]];portConstraint=eastwest;whiteSpace=wrap;html=1;" vertex="1" parent="3klpMzZMsvCTf8a6OgXH-29">
          <mxGeometry y="60" width="230" height="26" as="geometry" />
        </mxCell>
        <mxCell id="3klpMzZMsvCTf8a6OgXH-33" value="+ unsubscribe(Subscriber): void" style="text;strokeColor=none;fillColor=none;align=left;verticalAlign=top;spacingLeft=4;spacingRight=4;overflow=hidden;rotatable=0;points=[[0,0.5],[1,0.5]];portConstraint=eastwest;whiteSpace=wrap;html=1;" vertex="1" parent="3klpMzZMsvCTf8a6OgXH-29">
          <mxGeometry y="86" width="230" height="26" as="geometry" />
        </mxCell>
        <mxCell id="3klpMzZMsvCTf8a6OgXH-34" value="+ notifySubscribers(): void" style="text;strokeColor=none;fillColor=none;align=left;verticalAlign=top;spacingLeft=4;spacingRight=4;overflow=hidden;rotatable=0;points=[[0,0.5],[1,0.5]];portConstraint=eastwest;whiteSpace=wrap;html=1;" vertex="1" parent="3klpMzZMsvCTf8a6OgXH-29">
          <mxGeometry y="112" width="230" height="26" as="geometry" />
        </mxCell>
        <mxCell id="3klpMzZMsvCTf8a6OgXH-35" value="&lt;p style=&quot;margin:0px;margin-top:4px;text-align:center;&quot;&gt;&lt;i&gt;&amp;lt;&amp;lt;Interface&amp;gt;&amp;gt;&lt;/i&gt;&lt;/p&gt;&lt;p style=&quot;margin:0px;margin-top:4px;text-align:center;&quot;&gt;&lt;b&gt;Subscriber&lt;/b&gt;&lt;br&gt;&lt;/p&gt;&lt;hr size=&quot;1&quot;&gt;&lt;br&gt;&lt;hr size=&quot;1&quot;&gt;&lt;p style=&quot;margin:0px;margin-left:4px;&quot;&gt;+ update(idUsuario): void&lt;br&gt;&lt;/p&gt;" style="verticalAlign=top;align=left;overflow=fill;fontSize=12;fontFamily=Helvetica;html=1;whiteSpace=wrap;" vertex="1" parent="WIyWlLk6GJQsqaUBKTNV-1">
          <mxGeometry x="-671" y="563" width="190" height="100" as="geometry" />
        </mxCell>
        <mxCell id="3klpMzZMsvCTf8a6OgXH-36" value="&lt;p style=&quot;margin:0px;margin-top:4px;text-align:center;&quot;&gt;&lt;b&gt;Professor&lt;/b&gt;&lt;/p&gt;&lt;hr size=&quot;1&quot;&gt;&lt;p style=&quot;margin:0px;margin-left:4px;&quot;&gt;&lt;br&gt;&lt;/p&gt;&lt;hr size=&quot;1&quot;&gt;" style="verticalAlign=top;align=left;overflow=fill;fontSize=12;fontFamily=Helvetica;html=1;whiteSpace=wrap;" vertex="1" parent="WIyWlLk6GJQsqaUBKTNV-1">
          <mxGeometry x="-451" y="703" width="190" height="60" as="geometry" />
        </mxCell>
        <mxCell id="3klpMzZMsvCTf8a6OgXH-37" value="&lt;p style=&quot;margin:0px;margin-top:4px;text-align:center;&quot;&gt;&lt;b&gt;Livro&lt;/b&gt;&lt;/p&gt;&lt;hr size=&quot;1&quot;&gt;&lt;p style=&quot;margin:0px;margin-left:4px;&quot;&gt;- codigo: number&lt;/p&gt;&lt;p style=&quot;margin:0px;margin-left:4px;&quot;&gt;- titulo: string&lt;/p&gt;&lt;p style=&quot;margin:0px;margin-left:4px;&quot;&gt;- autores: string&lt;/p&gt;&lt;p style=&quot;margin:0px;margin-left:4px;&quot;&gt;- edicao: string&lt;/p&gt;&lt;p style=&quot;margin:0px;margin-left:4px;&quot;&gt;- anoPublicacao: string&lt;br&gt;&lt;/p&gt;&lt;p style=&quot;margin:0px;margin-left:4px;&quot;&gt;- editora: string&lt;/p&gt;&lt;p style=&quot;margin:0px;margin-left:4px;&quot;&gt;&lt;br&gt;&lt;/p&gt;&lt;p style=&quot;margin:0px;margin-left:4px;&quot;&gt;+ obterTitulo(): string&lt;/p&gt;&lt;p style=&quot;margin:0px;margin-left:4px;&quot;&gt;+ obterAutores(): string&lt;/p&gt;&lt;p style=&quot;margin:0px;margin-left:4px;&quot;&gt;+ obterEdicao():&amp;nbsp; string&lt;/p&gt;&lt;p style=&quot;margin:0px;margin-left:4px;&quot;&gt;+ obterAnoPublicacao(): string&lt;/p&gt;&lt;p style=&quot;margin:0px;margin-left:4px;&quot;&gt;+ adicionarExemplar(exemplar: Exemplar): void&amp;nbsp;&lt;/p&gt;&lt;p style=&quot;margin:0px;margin-left:4px;&quot;&gt;+ obterExemplares(): List&amp;lt;Exemplar&amp;gt;&lt;/p&gt;&lt;p style=&quot;margin:0px;margin-left:4px;&quot;&gt;+ obterExemplaresDisponiveis(): List&amp;lt;Exemplar&amp;gt;&lt;/p&gt;&lt;p style=&quot;margin:0px;margin-left:4px;&quot;&gt;+ disponibilidadeExemplares(): boolean&lt;/p&gt;&lt;p style=&quot;margin:0px;margin-left:4px;&quot;&gt;+ emprestar(): void&lt;/p&gt;&lt;p style=&quot;margin:0px;margin-left:4px;&quot;&gt;+ devolver(): void&lt;/p&gt;&lt;p style=&quot;margin:0px;margin-left:4px;&quot;&gt;+reservar(): void&lt;br&gt;&lt;/p&gt;" style="verticalAlign=top;align=left;overflow=fill;fontSize=12;fontFamily=Helvetica;html=1;whiteSpace=wrap;" vertex="1" parent="WIyWlLk6GJQsqaUBKTNV-1">
          <mxGeometry x="730" y="263" width="270" height="300" as="geometry" />
        </mxCell>
        <mxCell id="3klpMzZMsvCTf8a6OgXH-38" value="&lt;p style=&quot;margin:0px;margin-top:4px;text-align:center;&quot;&gt;&lt;i&gt;&amp;lt;&amp;lt;Usuario&amp;gt;&amp;gt;&lt;/i&gt;&lt;br&gt;&lt;b&gt;Interface&lt;/b&gt;&lt;/p&gt;&lt;hr size=&quot;1&quot;&gt;&lt;p style=&quot;margin:0px;margin-left:4px;&quot;&gt;- tempoEmprestimo: Int&lt;br&gt;- notificacoes: Int&lt;span style=&quot;&quot;&gt;&lt;span style=&quot;white-space: pre;&quot;&gt;&amp;nbsp;&amp;nbsp;&amp;nbsp;&amp;nbsp;&lt;/span&gt;&lt;/span&gt;&lt;/p&gt;&lt;hr size=&quot;1&quot;&gt;&lt;p style=&quot;margin:0px;margin-left:4px;&quot;&gt;+ obterNome(): string&lt;br&gt;+ obterCodigo(): int&lt;/p&gt;&lt;p style=&quot;margin:0px;margin-left:4px;&quot;&gt;+ obterTempoEmprestimo(): int&lt;/p&gt;&lt;p style=&quot;margin:0px;margin-left:4px;&quot;&gt;+ obterLimiteEmprestimo(): int&lt;/p&gt;&lt;p style=&quot;margin:0px;margin-left:4px;&quot;&gt;+ temAtrasos(): boolean&lt;/p&gt;&lt;p style=&quot;margin:0px;margin-left:4px;&quot;&gt;+ obterEmprestimoFinalizados(): Emprestimo[]&lt;/p&gt;&lt;p style=&quot;margin:0px;margin-left:4px;&quot;&gt;+ obterEmprestimoEmCurso(): Emprestimo[]&lt;/p&gt;&lt;p style=&quot;margin:0px;margin-left:4px;&quot;&gt;+ obterEmprestimo(codExmp: int): Emprestimo&lt;/p&gt;&lt;p style=&quot;margin:0px;margin-left:4px;&quot;&gt;+ emprestarLivro(livro: Livro): void&lt;/p&gt;&lt;p style=&quot;margin:0px;margin-left:4px;&quot;&gt;+ reservarLivro(livro: Livro): void&lt;/p&gt;&lt;p style=&quot;margin:0px;margin-left:4px;&quot;&gt;+ devolverLivro(livro: Livro): void&lt;/p&gt;&lt;p style=&quot;margin:0px;margin-left:4px;&quot;&gt;+ atualizarNotificacoes(): void&lt;/p&gt;&lt;p style=&quot;margin:0px;margin-left:4px;&quot;&gt;+ obterNotificacoes(): int&lt;br&gt;&lt;/p&gt;" style="verticalAlign=top;align=left;overflow=fill;fontSize=12;fontFamily=Helvetica;html=1;whiteSpace=wrap;" vertex="1" parent="WIyWlLk6GJQsqaUBKTNV-1">
          <mxGeometry x="-276" y="276" width="260" height="287" as="geometry" />
        </mxCell>
        <mxCell id="3klpMzZMsvCTf8a6OgXH-39" value="&lt;p style=&quot;margin:0px;margin-top:4px;text-align:center;&quot;&gt;&lt;b&gt;AlunoGraduacao&lt;/b&gt;&lt;/p&gt;&lt;hr size=&quot;1&quot;&gt;" style="verticalAlign=top;align=left;overflow=fill;fontSize=12;fontFamily=Helvetica;html=1;whiteSpace=wrap;" vertex="1" parent="WIyWlLk6GJQsqaUBKTNV-1">
          <mxGeometry x="-241" y="703" width="190" height="60" as="geometry" />
        </mxCell>
        <mxCell id="3klpMzZMsvCTf8a6OgXH-40" value="&lt;p style=&quot;margin:0px;margin-top:4px;text-align:center;&quot;&gt;&lt;b&gt;AlunoPosGraduacao&lt;/b&gt;&lt;/p&gt;&lt;hr size=&quot;1&quot;&gt;&lt;p style=&quot;margin:0px;margin-left:4px;&quot;&gt;&lt;br&gt;&lt;/p&gt;&lt;hr size=&quot;1&quot;&gt;" style="verticalAlign=top;align=left;overflow=fill;fontSize=12;fontFamily=Helvetica;html=1;whiteSpace=wrap;" vertex="1" parent="WIyWlLk6GJQsqaUBKTNV-1">
          <mxGeometry x="-26" y="703" width="190" height="60" as="geometry" />
        </mxCell>
        <mxCell id="3klpMzZMsvCTf8a6OgXH-42" value="" style="endArrow=block;endSize=16;endFill=0;html=1;rounded=0;entryX=1;entryY=0.5;entryDx=0;entryDy=0;exitX=0;exitY=0.5;exitDx=0;exitDy=0;" edge="1" parent="WIyWlLk6GJQsqaUBKTNV-1" source="8b9i2b3PVjJ9cJd1Zyqa-45" target="8b9i2b3PVjJ9cJd1Zyqa-41">
          <mxGeometry width="160" relative="1" as="geometry">
            <mxPoint x="1215" y="283" as="sourcePoint" />
            <mxPoint x="1375" y="283" as="targetPoint" />
            <Array as="points">
              <mxPoint x="1305" y="183" />
              <mxPoint x="1285" y="243" />
            </Array>
          </mxGeometry>
        </mxCell>
        <mxCell id="3klpMzZMsvCTf8a6OgXH-43" value="" style="endArrow=block;endSize=16;endFill=0;html=1;rounded=0;exitX=0;exitY=0.5;exitDx=0;exitDy=0;" edge="1" parent="WIyWlLk6GJQsqaUBKTNV-1" source="3klpMzZMsvCTf8a6OgXH-6">
          <mxGeometry width="160" relative="1" as="geometry">
            <mxPoint x="1352.5" y="165" as="sourcePoint" />
            <mxPoint x="1222.5" y="243" as="targetPoint" />
            <Array as="points">
              <mxPoint x="1312.5" y="193" />
              <mxPoint x="1285" y="243" />
            </Array>
          </mxGeometry>
        </mxCell>
        <mxCell id="3klpMzZMsvCTf8a6OgXH-44" value="" style="endArrow=block;endSize=16;endFill=0;html=1;rounded=0;exitX=0;exitY=0.5;exitDx=0;exitDy=0;entryX=1;entryY=0.5;entryDx=0;entryDy=0;" edge="1" parent="WIyWlLk6GJQsqaUBKTNV-1" source="3klpMzZMsvCTf8a6OgXH-4" target="8b9i2b3PVjJ9cJd1Zyqa-41">
          <mxGeometry width="160" relative="1" as="geometry">
            <mxPoint x="1380" y="106" as="sourcePoint" />
            <mxPoint x="1222.5" y="236.22950819672133" as="targetPoint" />
            <Array as="points">
              <mxPoint x="1315" y="223" />
              <mxPoint x="1285" y="243" />
            </Array>
          </mxGeometry>
        </mxCell>
        <mxCell id="3klpMzZMsvCTf8a6OgXH-45" value="" style="endArrow=none;html=1;rounded=0;entryX=0;entryY=0.5;entryDx=0;entryDy=0;" edge="1" parent="WIyWlLk6GJQsqaUBKTNV-1" target="3klpMzZMsvCTf8a6OgXH-2">
          <mxGeometry width="50" height="50" relative="1" as="geometry">
            <mxPoint x="1285" y="243" as="sourcePoint" />
            <mxPoint x="1335" y="251" as="targetPoint" />
          </mxGeometry>
        </mxCell>
        <mxCell id="3klpMzZMsvCTf8a6OgXH-46" value="" style="endArrow=none;html=1;rounded=0;entryX=0;entryY=0.5;entryDx=0;entryDy=0;" edge="1" parent="WIyWlLk6GJQsqaUBKTNV-1" target="8b9i2b3PVjJ9cJd1Zyqa-47">
          <mxGeometry width="50" height="50" relative="1" as="geometry">
            <mxPoint x="1285" y="243" as="sourcePoint" />
            <mxPoint x="1345" y="305" as="targetPoint" />
          </mxGeometry>
        </mxCell>
        <mxCell id="3klpMzZMsvCTf8a6OgXH-47" value="" style="endArrow=none;html=1;rounded=0;entryX=0;entryY=0.5;entryDx=0;entryDy=0;" edge="1" parent="WIyWlLk6GJQsqaUBKTNV-1" target="8b9i2b3PVjJ9cJd1Zyqa-49">
          <mxGeometry width="50" height="50" relative="1" as="geometry">
            <mxPoint x="1285" y="243" as="sourcePoint" />
            <mxPoint x="1345" y="364" as="targetPoint" />
          </mxGeometry>
        </mxCell>
        <mxCell id="3klpMzZMsvCTf8a6OgXH-48" value="" style="endArrow=none;html=1;rounded=0;entryX=0;entryY=0.5;entryDx=0;entryDy=0;" edge="1" parent="WIyWlLk6GJQsqaUBKTNV-1">
          <mxGeometry width="50" height="50" relative="1" as="geometry">
            <mxPoint x="1285" y="243" as="sourcePoint" />
            <mxPoint x="1355" y="432" as="targetPoint" />
          </mxGeometry>
        </mxCell>
        <mxCell id="3klpMzZMsvCTf8a6OgXH-49" value="" style="endArrow=none;html=1;rounded=0;entryX=0;entryY=0.5;entryDx=0;entryDy=0;" edge="1" parent="WIyWlLk6GJQsqaUBKTNV-1" target="8b9i2b3PVjJ9cJd1Zyqa-43">
          <mxGeometry width="50" height="50" relative="1" as="geometry">
            <mxPoint x="1285" y="243" as="sourcePoint" />
            <mxPoint x="1365" y="442" as="targetPoint" />
          </mxGeometry>
        </mxCell>
        <mxCell id="3klpMzZMsvCTf8a6OgXH-50" value="" style="endArrow=block;dashed=1;endFill=0;endSize=12;html=1;rounded=0;entryX=0.5;entryY=1;entryDx=0;entryDy=0;exitX=0.5;exitY=0;exitDx=0;exitDy=0;" edge="1" parent="WIyWlLk6GJQsqaUBKTNV-1" source="3klpMzZMsvCTf8a6OgXH-39" target="3klpMzZMsvCTf8a6OgXH-38">
          <mxGeometry width="160" relative="1" as="geometry">
            <mxPoint x="-291" y="633" as="sourcePoint" />
            <mxPoint x="-131" y="633" as="targetPoint" />
          </mxGeometry>
        </mxCell>
        <mxCell id="3klpMzZMsvCTf8a6OgXH-51" value="" style="endArrow=none;dashed=1;html=1;dashPattern=1 3;strokeWidth=2;rounded=0;exitX=0.5;exitY=0;exitDx=0;exitDy=0;" edge="1" parent="WIyWlLk6GJQsqaUBKTNV-1" source="3klpMzZMsvCTf8a6OgXH-36">
          <mxGeometry width="50" height="50" relative="1" as="geometry">
            <mxPoint x="-221" y="663" as="sourcePoint" />
            <mxPoint x="-151" y="603" as="targetPoint" />
          </mxGeometry>
        </mxCell>
        <mxCell id="3klpMzZMsvCTf8a6OgXH-52" value="" style="endArrow=none;dashed=1;html=1;dashPattern=1 3;strokeWidth=2;rounded=0;exitX=0.5;exitY=0;exitDx=0;exitDy=0;" edge="1" parent="WIyWlLk6GJQsqaUBKTNV-1" source="3klpMzZMsvCTf8a6OgXH-40">
          <mxGeometry width="50" height="50" relative="1" as="geometry">
            <mxPoint x="-31" y="663" as="sourcePoint" />
            <mxPoint x="-141" y="603" as="targetPoint" />
          </mxGeometry>
        </mxCell>
        <mxCell id="3klpMzZMsvCTf8a6OgXH-53" value="&lt;p style=&quot;margin:0px;margin-top:4px;text-align:center;&quot;&gt;&lt;b&gt;Reserva&lt;/b&gt;&lt;/p&gt;&lt;hr size=&quot;1&quot;&gt;&lt;p style=&quot;margin:0px;margin-left:4px;&quot;&gt;+ codigoLivro: int&lt;/p&gt;&lt;p style=&quot;margin:0px;margin-left:4px;&quot;&gt;+ codigloExemplar: int&lt;br&gt;&lt;/p&gt;&lt;hr size=&quot;1&quot;&gt;&lt;p style=&quot;margin:0px;margin-left:4px;&quot;&gt;+ obterCodigoLivro(): int&lt;/p&gt;&lt;p style=&quot;margin:0px;margin-left:4px;&quot;&gt;+ obterCodigoExemplar(): int&lt;/p&gt;" style="verticalAlign=top;align=left;overflow=fill;fontSize=12;fontFamily=Helvetica;html=1;whiteSpace=wrap;" vertex="1" parent="WIyWlLk6GJQsqaUBKTNV-1">
          <mxGeometry x="59" y="465" width="190" height="120" as="geometry" />
        </mxCell>
        <mxCell id="3klpMzZMsvCTf8a6OgXH-54" value="&lt;div align=&quot;center&quot;&gt;&lt;b&gt;Emprestimo&lt;/b&gt;&lt;/div&gt;&lt;hr size=&quot;1&quot;&gt;&lt;p style=&quot;margin:0px;margin-left:4px;&quot;&gt;+ dataEmprestimo: date&lt;/p&gt;&lt;p style=&quot;margin:0px;margin-left:4px;&quot;&gt;+ dataDevolucao: date&lt;/p&gt;&lt;p style=&quot;margin:0px;margin-left:4px;&quot;&gt;+ statusEmprestimo: string&lt;br&gt;&lt;/p&gt;&lt;hr size=&quot;1&quot;&gt;&lt;p style=&quot;margin:0px;margin-left:4px;&quot;&gt;+ obterCodigoLivro(): int&lt;/p&gt;&lt;p style=&quot;margin:0px;margin-left:4px;&quot;&gt;+ obterCodigoExemplar(): int&lt;/p&gt;&lt;p style=&quot;margin:0px;margin-left:4px;&quot;&gt;+ finalizarEmprestimo(): void&lt;/p&gt;&lt;p style=&quot;margin:0px;margin-left:4px;&quot;&gt;+ estaAtrasado(): boolean&lt;/p&gt;&lt;p style=&quot;margin:0px;margin-left:4px;&quot;&gt;+ obterDataEmprestimo(): date&lt;/p&gt;&lt;p style=&quot;margin:0px;margin-left:4px;&quot;&gt;+ obterDataDevolucao(): date&lt;/p&gt;&lt;p style=&quot;margin:0px;margin-left:4px;&quot;&gt;- calcularDataEntrega(): date&lt;/p&gt;&lt;p style=&quot;margin:0px;margin-left:4px;&quot;&gt;+ obteStatusEmprestimo(): string&lt;br&gt;&lt;/p&gt;" style="verticalAlign=top;align=left;overflow=fill;fontSize=12;fontFamily=Helvetica;html=1;whiteSpace=wrap;" vertex="1" parent="WIyWlLk6GJQsqaUBKTNV-1">
          <mxGeometry x="59" y="187" width="190" height="208" as="geometry" />
        </mxCell>
        <mxCell id="3klpMzZMsvCTf8a6OgXH-55" value="&lt;p style=&quot;margin:0px;margin-top:4px;text-align:center;&quot;&gt;&lt;b&gt;Exemplar&lt;/b&gt;&lt;/p&gt;&lt;hr size=&quot;1&quot;&gt;&lt;p style=&quot;margin:0px;margin-left:4px;&quot;&gt;- codigoUsuario: int&lt;/p&gt;&lt;p style=&quot;margin:0px;margin-left:4px;&quot;&gt;- codigo: int&lt;/p&gt;&lt;p style=&quot;margin:0px;margin-left:4px;&quot;&gt;- status: string&lt;br&gt;&lt;/p&gt;&lt;div&gt;+ obterCodigoUsuario(): int&lt;/div&gt;&lt;div&gt;+ adicionarUsuario(): int&lt;/div&gt;&lt;div&gt;+ removerUsuario(): void&lt;/div&gt;&lt;div&gt;+ obterCodigo(): int&lt;/div&gt;&lt;div&gt;+ obterStatus(): string&lt;/div&gt;&lt;div&gt;+ atualizarStatus(): string&lt;br&gt;&lt;/div&gt;&lt;hr size=&quot;1&quot;&gt;" style="verticalAlign=top;align=left;overflow=fill;fontSize=12;fontFamily=Helvetica;html=1;whiteSpace=wrap;" vertex="1" parent="WIyWlLk6GJQsqaUBKTNV-1">
          <mxGeometry x="775" y="633" width="190" height="170" as="geometry" />
        </mxCell>
        <mxCell id="3klpMzZMsvCTf8a6OgXH-59" value="" style="endArrow=none;html=1;rounded=0;entryX=0;entryY=0.5;entryDx=0;entryDy=0;exitX=1;exitY=0.5;exitDx=0;exitDy=0;" edge="1" parent="WIyWlLk6GJQsqaUBKTNV-1" source="3klpMzZMsvCTf8a6OgXH-38" target="3klpMzZMsvCTf8a6OgXH-54">
          <mxGeometry width="50" height="50" relative="1" as="geometry">
            <mxPoint x="-41" y="533" as="sourcePoint" />
            <mxPoint x="9" y="483" as="targetPoint" />
          </mxGeometry>
        </mxCell>
        <mxCell id="3klpMzZMsvCTf8a6OgXH-60" value="" style="endArrow=none;html=1;rounded=0;entryX=0;entryY=0.5;entryDx=0;entryDy=0;exitX=1;exitY=0.5;exitDx=0;exitDy=0;" edge="1" parent="WIyWlLk6GJQsqaUBKTNV-1" source="3klpMzZMsvCTf8a6OgXH-38" target="3klpMzZMsvCTf8a6OgXH-53">
          <mxGeometry width="50" height="50" relative="1" as="geometry">
            <mxPoint x="-41" y="533" as="sourcePoint" />
            <mxPoint x="9" y="483" as="targetPoint" />
          </mxGeometry>
        </mxCell>
        <mxCell id="3klpMzZMsvCTf8a6OgXH-61" value="" style="endArrow=none;html=1;edgeStyle=orthogonalEdgeStyle;rounded=0;exitX=0;exitY=0.5;exitDx=0;exitDy=0;entryX=0.5;entryY=0;entryDx=0;entryDy=0;" edge="1" parent="WIyWlLk6GJQsqaUBKTNV-1" source="3klpMzZMsvCTf8a6OgXH-17" target="3klpMzZMsvCTf8a6OgXH-27">
          <mxGeometry relative="1" as="geometry">
            <mxPoint x="-851" y="265.6" as="sourcePoint" />
            <mxPoint x="-691" y="265.6" as="targetPoint" />
          </mxGeometry>
        </mxCell>
        <mxCell id="3klpMzZMsvCTf8a6OgXH-62" value="parent" style="edgeLabel;resizable=0;html=1;align=left;verticalAlign=bottom;" connectable="0" vertex="1" parent="3klpMzZMsvCTf8a6OgXH-61">
          <mxGeometry x="-1" relative="1" as="geometry">
            <mxPoint x="-40" as="offset" />
          </mxGeometry>
        </mxCell>
        <mxCell id="3klpMzZMsvCTf8a6OgXH-63" value="child" style="edgeLabel;resizable=0;html=1;align=right;verticalAlign=bottom;" connectable="0" vertex="1" parent="3klpMzZMsvCTf8a6OgXH-61">
          <mxGeometry x="1" relative="1" as="geometry" />
        </mxCell>
        <mxCell id="3klpMzZMsvCTf8a6OgXH-64" value="" style="endArrow=none;html=1;edgeStyle=orthogonalEdgeStyle;rounded=0;exitX=0;exitY=0.5;exitDx=0;exitDy=0;" edge="1" parent="WIyWlLk6GJQsqaUBKTNV-1" source="3klpMzZMsvCTf8a6OgXH-17" target="3klpMzZMsvCTf8a6OgXH-26">
          <mxGeometry relative="1" as="geometry">
            <mxPoint x="-876" y="173" as="sourcePoint" />
            <mxPoint x="-1051" y="353" as="targetPoint" />
          </mxGeometry>
        </mxCell>
        <mxCell id="3klpMzZMsvCTf8a6OgXH-65" value="parent" style="edgeLabel;resizable=0;html=1;align=left;verticalAlign=bottom;" connectable="0" vertex="1" parent="3klpMzZMsvCTf8a6OgXH-64">
          <mxGeometry x="-1" relative="1" as="geometry">
            <mxPoint x="-40" as="offset" />
          </mxGeometry>
        </mxCell>
        <mxCell id="3klpMzZMsvCTf8a6OgXH-66" value="child" style="edgeLabel;resizable=0;html=1;align=right;verticalAlign=bottom;" connectable="0" vertex="1" parent="3klpMzZMsvCTf8a6OgXH-64">
          <mxGeometry x="1" relative="1" as="geometry" />
        </mxCell>
        <mxCell id="3klpMzZMsvCTf8a6OgXH-68" value="" style="endArrow=none;html=1;rounded=0;entryX=0.5;entryY=1;entryDx=0;entryDy=0;exitX=0.5;exitY=0;exitDx=0;exitDy=0;" edge="1" parent="WIyWlLk6GJQsqaUBKTNV-1" source="3klpMzZMsvCTf8a6OgXH-29" target="3klpMzZMsvCTf8a6OgXH-17">
          <mxGeometry width="50" height="50" relative="1" as="geometry">
            <mxPoint x="-571" y="483" as="sourcePoint" />
            <mxPoint x="-521" y="433" as="targetPoint" />
          </mxGeometry>
        </mxCell>
        <mxCell id="3klpMzZMsvCTf8a6OgXH-70" value="&lt;p style=&quot;margin:0px;margin-top:4px;text-align:center;&quot;&gt;&lt;b&gt;BancoDeDados&lt;/b&gt;&lt;/p&gt;&lt;hr size=&quot;1&quot;&gt;&lt;p style=&quot;margin:0px;margin-left:4px;&quot;&gt;+ instancia: BancoDeDados&lt;/p&gt;&lt;hr size=&quot;1&quot;&gt;&lt;p style=&quot;margin:0px;margin-left:4px;&quot;&gt;+ obterInstancia(): BancoDeDados&lt;/p&gt;&lt;p style=&quot;margin:0px;margin-left:4px;&quot;&gt;+ getUsuarios(): List&amp;lt;Usuario&amp;gt;&lt;br&gt;&lt;/p&gt;&lt;p style=&quot;margin:0px;margin-left:4px;&quot;&gt;+ getLivros(): List&amp;lt;Livro&amp;gt;&lt;br&gt;&lt;/p&gt;&lt;p style=&quot;margin:0px;margin-left:4px;&quot;&gt;+ getExemplares(): List&amp;lt;Exemplar&amp;gt;&lt;/p&gt;" style="verticalAlign=top;align=left;overflow=fill;fontSize=12;fontFamily=Helvetica;html=1;whiteSpace=wrap;" vertex="1" parent="WIyWlLk6GJQsqaUBKTNV-1">
          <mxGeometry x="-1031" y="523" width="210" height="130" as="geometry" />
        </mxCell>
        <mxCell id="3klpMzZMsvCTf8a6OgXH-74" value="" style="endArrow=none;html=1;rounded=0;entryX=0.5;entryY=1;entryDx=0;entryDy=0;exitX=0.5;exitY=0;exitDx=0;exitDy=0;" edge="1" parent="WIyWlLk6GJQsqaUBKTNV-1" source="3klpMzZMsvCTf8a6OgXH-70" target="3klpMzZMsvCTf8a6OgXH-26">
          <mxGeometry width="50" height="50" relative="1" as="geometry">
            <mxPoint x="-1001" y="503" as="sourcePoint" />
            <mxPoint x="-951" y="453" as="targetPoint" />
          </mxGeometry>
        </mxCell>
        <mxCell id="3klpMzZMsvCTf8a6OgXH-75" value="" style="endArrow=none;html=1;rounded=0;entryX=0.5;entryY=1;entryDx=0;entryDy=0;exitX=0.5;exitY=0;exitDx=0;exitDy=0;" edge="1" parent="WIyWlLk6GJQsqaUBKTNV-1" source="3klpMzZMsvCTf8a6OgXH-70" target="3klpMzZMsvCTf8a6OgXH-27">
          <mxGeometry width="50" height="50" relative="1" as="geometry">
            <mxPoint x="-1001" y="503" as="sourcePoint" />
            <mxPoint x="-951" y="453" as="targetPoint" />
          </mxGeometry>
        </mxCell>
        <mxCell id="3klpMzZMsvCTf8a6OgXH-76" value="1" style="endArrow=open;html=1;endSize=12;startArrow=diamondThin;startSize=14;startFill=0;edgeStyle=orthogonalEdgeStyle;align=left;verticalAlign=bottom;rounded=0;exitX=1;exitY=0.5;exitDx=0;exitDy=0;entryX=0.5;entryY=0;entryDx=0;entryDy=0;" edge="1" parent="WIyWlLk6GJQsqaUBKTNV-1" source="3klpMzZMsvCTf8a6OgXH-17" target="3klpMzZMsvCTf8a6OgXH-38">
          <mxGeometry x="-1" y="3" relative="1" as="geometry">
            <mxPoint x="-471" y="172.5" as="sourcePoint" />
            <mxPoint x="-311" y="172.5" as="targetPoint" />
          </mxGeometry>
        </mxCell>
        <mxCell id="3klpMzZMsvCTf8a6OgXH-77" value="1" style="endArrow=open;html=1;endSize=12;startArrow=diamondThin;startSize=14;startFill=0;edgeStyle=orthogonalEdgeStyle;align=left;verticalAlign=bottom;rounded=0;exitX=1;exitY=0.25;exitDx=0;exitDy=0;entryX=0.5;entryY=0;entryDx=0;entryDy=0;" edge="1" parent="WIyWlLk6GJQsqaUBKTNV-1" source="3klpMzZMsvCTf8a6OgXH-17" target="3klpMzZMsvCTf8a6OgXH-37">
          <mxGeometry x="-1" y="3" relative="1" as="geometry">
            <mxPoint x="-471" y="133" as="sourcePoint" />
            <mxPoint x="-136" y="236" as="targetPoint" />
          </mxGeometry>
        </mxCell>
        <mxCell id="3klpMzZMsvCTf8a6OgXH-78" value="" style="endArrow=none;html=1;rounded=0;exitX=1.026;exitY=0.113;exitDx=0;exitDy=0;exitPerimeter=0;entryX=0;entryY=0.25;entryDx=0;entryDy=0;" edge="1" parent="WIyWlLk6GJQsqaUBKTNV-1" source="3klpMzZMsvCTf8a6OgXH-17" target="8b9i2b3PVjJ9cJd1Zyqa-41">
          <mxGeometry width="50" height="50" relative="1" as="geometry">
            <mxPoint x="-51" y="93" as="sourcePoint" />
            <mxPoint x="-1" y="43" as="targetPoint" />
            <Array as="points">
              <mxPoint x="449" y="111" />
            </Array>
          </mxGeometry>
        </mxCell>
        <mxCell id="3klpMzZMsvCTf8a6OgXH-80" value="" style="endArrow=none;html=1;rounded=0;entryX=0.5;entryY=1;entryDx=0;entryDy=0;exitX=0.5;exitY=0;exitDx=0;exitDy=0;" edge="1" parent="WIyWlLk6GJQsqaUBKTNV-1" source="3klpMzZMsvCTf8a6OgXH-55" target="3klpMzZMsvCTf8a6OgXH-37">
          <mxGeometry width="50" height="50" relative="1" as="geometry">
            <mxPoint x="885" y="583" as="sourcePoint" />
            <mxPoint x="935" y="533" as="targetPoint" />
          </mxGeometry>
        </mxCell>
        <mxCell id="3klpMzZMsvCTf8a6OgXH-82" value="*" style="edgeLabel;html=1;align=center;verticalAlign=middle;resizable=0;points=[];" vertex="1" connectable="0" parent="3klpMzZMsvCTf8a6OgXH-80">
          <mxGeometry x="-0.8071" y="1" relative="1" as="geometry">
            <mxPoint x="-4" y="-3" as="offset" />
          </mxGeometry>
        </mxCell>
        <mxCell id="3klpMzZMsvCTf8a6OgXH-84" value="&lt;div&gt;1&lt;/div&gt;" style="edgeLabel;html=1;align=center;verticalAlign=middle;resizable=0;points=[];" vertex="1" connectable="0" parent="3klpMzZMsvCTf8a6OgXH-80">
          <mxGeometry x="0.7784" relative="1" as="geometry">
            <mxPoint x="-10" as="offset" />
          </mxGeometry>
        </mxCell>
        <mxCell id="3klpMzZMsvCTf8a6OgXH-83" value="" style="line;strokeWidth=1;fillColor=none;align=left;verticalAlign=middle;spacingTop=-1;spacingLeft=3;spacingRight=3;rotatable=0;labelPosition=right;points=[];portConstraint=eastwest;strokeColor=inherit;" vertex="1" parent="WIyWlLk6GJQsqaUBKTNV-1">
          <mxGeometry x="730" y="379" width="270" height="8" as="geometry" />
        </mxCell>
        <mxCell id="3klpMzZMsvCTf8a6OgXH-85" value="" style="line;strokeWidth=1;fillColor=none;align=left;verticalAlign=middle;spacingTop=-1;spacingLeft=3;spacingRight=3;rotatable=0;labelPosition=right;points=[];portConstraint=eastwest;strokeColor=inherit;" vertex="1" parent="WIyWlLk6GJQsqaUBKTNV-1">
          <mxGeometry x="775" y="703" width="190" height="8" as="geometry" />
        </mxCell>
        <mxCell id="3klpMzZMsvCTf8a6OgXH-86" value="&lt;p style=&quot;margin:0px;margin-top:4px;text-align:center;&quot;&gt;&lt;i&gt;&amp;lt;&amp;lt;IValidador&amp;gt;&amp;gt;&lt;/i&gt;&lt;br&gt;&lt;b&gt;Interface&lt;/b&gt;&lt;/p&gt;&lt;br&gt;&lt;hr size=&quot;1&quot;&gt;&lt;p style=&quot;margin:0px;margin-left:4px;&quot;&gt;+ validarEmprestimo(livro: Livro, usuario: Usuario): boolean&lt;br&gt;+ validarReserva(livro: Livro, usuario: Usuario): boolean&lt;/p&gt;" style="verticalAlign=top;align=left;overflow=fill;fontSize=12;fontFamily=Helvetica;html=1;whiteSpace=wrap;" vertex="1" parent="WIyWlLk6GJQsqaUBKTNV-1">
          <mxGeometry x="350" y="276" width="320" height="104" as="geometry" />
        </mxCell>
        <mxCell id="3klpMzZMsvCTf8a6OgXH-87" value="&lt;p style=&quot;margin:0px;margin-top:4px;text-align:center;&quot;&gt;&lt;b&gt;ValidadorAluno&lt;/b&gt;&lt;/p&gt;&lt;hr size=&quot;1&quot;&gt;&lt;p style=&quot;margin:0px;margin-left:4px;&quot;&gt;&lt;br&gt;&lt;/p&gt;&lt;hr size=&quot;1&quot;&gt;" style="verticalAlign=top;align=left;overflow=fill;fontSize=12;fontFamily=Helvetica;html=1;whiteSpace=wrap;" vertex="1" parent="WIyWlLk6GJQsqaUBKTNV-1">
          <mxGeometry x="300" y="503" width="190" height="60" as="geometry" />
        </mxCell>
        <mxCell id="3klpMzZMsvCTf8a6OgXH-89" value="&lt;p style=&quot;margin:0px;margin-top:4px;text-align:center;&quot;&gt;&lt;b&gt;ValidadorProfessor&lt;/b&gt;&lt;/p&gt;&lt;hr size=&quot;1&quot;&gt;&lt;p style=&quot;margin:0px;margin-left:4px;&quot;&gt;&lt;br&gt;&lt;/p&gt;&lt;hr size=&quot;1&quot;&gt;" style="verticalAlign=top;align=left;overflow=fill;fontSize=12;fontFamily=Helvetica;html=1;whiteSpace=wrap;" vertex="1" parent="WIyWlLk6GJQsqaUBKTNV-1">
          <mxGeometry x="510" y="503" width="190" height="60" as="geometry" />
        </mxCell>
        <mxCell id="3klpMzZMsvCTf8a6OgXH-90" value="" style="endArrow=block;dashed=1;endFill=0;endSize=12;html=1;rounded=0;entryX=0.5;entryY=1;entryDx=0;entryDy=0;exitX=0.5;exitY=0;exitDx=0;exitDy=0;" edge="1" parent="WIyWlLk6GJQsqaUBKTNV-1" source="3klpMzZMsvCTf8a6OgXH-87" target="3klpMzZMsvCTf8a6OgXH-86">
          <mxGeometry width="160" relative="1" as="geometry">
            <mxPoint x="380" y="500" as="sourcePoint" />
            <mxPoint x="540" y="500" as="targetPoint" />
            <Array as="points">
              <mxPoint x="510" y="440" />
            </Array>
          </mxGeometry>
        </mxCell>
        <mxCell id="3klpMzZMsvCTf8a6OgXH-91" value="" style="endArrow=block;dashed=1;endFill=0;endSize=12;html=1;rounded=0;entryX=0.5;entryY=1;entryDx=0;entryDy=0;exitX=0.5;exitY=0;exitDx=0;exitDy=0;" edge="1" parent="WIyWlLk6GJQsqaUBKTNV-1" source="3klpMzZMsvCTf8a6OgXH-89" target="3klpMzZMsvCTf8a6OgXH-86">
          <mxGeometry width="160" relative="1" as="geometry">
            <mxPoint x="405" y="513" as="sourcePoint" />
            <mxPoint x="520" y="390" as="targetPoint" />
            <Array as="points">
              <mxPoint x="510" y="440" />
            </Array>
          </mxGeometry>
        </mxCell>
        <mxCell id="3klpMzZMsvCTf8a6OgXH-92" value="" style="endArrow=none;html=1;rounded=0;exitX=1;exitY=0.5;exitDx=0;exitDy=0;entryX=0;entryY=0.5;entryDx=0;entryDy=0;" edge="1" parent="WIyWlLk6GJQsqaUBKTNV-1" source="3klpMzZMsvCTf8a6OgXH-38" target="3klpMzZMsvCTf8a6OgXH-86">
          <mxGeometry width="50" height="50" relative="1" as="geometry">
            <mxPoint x="340" y="490" as="sourcePoint" />
            <mxPoint x="390" y="440" as="targetPoint" />
            <Array as="points">
              <mxPoint x="300" y="420" />
            </Array>
          </mxGeometry>
        </mxCell>
      </root>
    </mxGraphModel>
  </diagram>
</mxfile>
